<?xml version="1.0" standalone="no"?>
<!DOCTYPE svg PUBLIC "-//W3C//DTD SVG 20010904//EN"
 "http://www.w3.org/TR/2001/REC-SVG-20010904/DTD/svg10.dtd">
<svg version="1.0" xmlns="http://www.w3.org/2000/svg"
 width="572.000000pt" height="572.000000pt" viewBox="0 0 572.000000 572.000000"
 preserveAspectRatio="xMidYMid meet">
<metadata>
Created by potrace 1.11, written by Peter Selinger 2001-2013
</metadata>
<g transform="translate(0.000000,572.000000) scale(0.100000,-0.100000)"
fill="#000000" stroke="none">
<path d="M3705 5700 c-37 -18 -237 -213 -552 -536 -293 -302 -648 -666 -719
-740 -44 -45 -187 -193 -319 -329 -132 -136 -278 -286 -324 -334 -186 -192
-247 -260 -304 -336 -170 -228 -166 -383 15 -513 68 -49 146 -89 363 -186 179
-81 251 -124 328 -200 179 -176 223 -382 142 -661 -89 -308 -232 -681 -489
-1273 -87 -200 -110 -283 -111 -397 0 -104 19 -148 78 -180 75 -40 223 13 369
132 61 51 289 281 576 581 35 37 107 112 160 167 54 55 167 174 252 264 85 90
189 201 232 245 42 45 93 99 113 121 45 48 95 103 195 211 164 176 190 204
312 341 159 177 236 281 290 390 38 76 42 93 42 156 1 52 -5 82 -18 107 -41
76 -136 144 -296 210 -41 17 -84 35 -95 40 -11 4 -47 18 -80 31 -33 12 -64 25
-70 29 -5 4 -21 11 -35 15 -14 4 -76 32 -138 62 -92 45 -127 68 -181 122 -112
111 -164 245 -164 425 0 133 22 225 116 486 214 597 328 906 434 1175 31 77
59 154 64 170 24 79 4 175 -42 203 -38 24 -100 25 -144 2z"/>
</g>
</svg>
